PathFileType	4	(X/Y/Z)	9_2_7_p0_0-323.trc
DataRate	CameraRate	NumFrames	NumMarkers	Units	OrigDataRate	OrigDataStartFrame	OrigNumFrames
60.0	60.0	5	27	m	60.0	40	324
Frame#	Time	RHip			RKnee			RAnkle			RBigToe			RSmallToe			RHeel			LHip			LKnee			LAnkle			LBigToe			LSmallToe			LHeel			Neck			Head			Nose			RShoulder			RElbow			RWrist			RThumb			RIndex			RPinky			LShoulder			LElbow			LWrist			LThumb			LIndex			LPinky			
		X1	Y1	Z1	X2	Y2	Z2	X3	Y3	Z3	X4	Y4	Z4	X5	Y5	Z5	X6	Y6	Z6	X7	Y7	Z7	X8	Y8	Z8	X9	Y9	Z9	X10	Y10	Z10	X11	Y11	Z11	X12	Y12	Z12	X13	Y13	Z13	X14	Y14	Z14	X15	Y15	Z15	X16	Y16	Z16	X17	Y17	Z17	X18	Y18	Z18	X19	Y19	Z19	X20	Y20	Z20	X21	Y21	Z21	X22	Y22	Z22	X23	Y23	Z23	X24	Y24	Z24	X25	Y25	Z25	X26	Y26	Z26	X27	Y27	Z27	
40	0.6666666666666666	0.23418829329577917	0.4576182535535803	1.031477692194048	0.25474095916026185	0.4806328934554317	1.4560704564340976	0.29114041954104236	0.5792494763553765	1.8697988645929515	0.27125527229437996	0.4219524056499343	1.8938035029363298	0.3260137160438856	0.45393858358845995	1.8930676508964401	0.27804287869999467	0.680051621366193	1.941594345081522	0.04290580238149308	0.42492286403651863	1.033459457214423	0.0659974043636831	0.5282010524005797	1.4701709312342637	0.08908296423888912	0.567963078197553	1.8624867085939991	0.10381414558367387	0.4500204253607217	1.9145165243651572	0.05768541892603494	0.46034175681156914	1.889437234232763	0.10885094463606915	0.6040149390427746	1.903807186061474	0.1320349773561514	0.41140788140056744	0.5061509083943295	0.12983272851180952	0.3502056766224589	0.26040297004107554	0.1370920609459155	0.31309579826827677	0.40119938679940087	0.2651415313886656	0.447881973748703	0.5916557677140134	0.3169616836470361	0.4614456137514576	0.8631445268006396	0.19444303958392917	0.32039246292709606	1.028861307232514	0.1304289701094365	0.3335159495339511	1.1422022631847117	0.14033448838071888	0.3499724984349299	1.149733785019312	0.14804866811696993	0.3873799396128769	1.1652045535195157	-0.021294787694262046	0.43902113619735317	0.5896782941753743	-0.031946816177499615	0.42050032084541816	0.861275125223654	0.08373167004566837	0.31970295334289117	1.0333042087865738	0.1759654240309055	0.31138169607798444	1.1092573301475914	0.17733670971868282	0.31047681580151265	1.1219317739595682	0.1203335847828196	0.31615193410456055	1.1539939564373718
41	0.6833333333333333	0.23830392933489555	0.4447071859573314	1.0314712566489046	0.2547723475006642	0.4804579660664185	1.4561297004750045	0.2911976951634033	0.5792607853910051	1.8697396079887993	0.2713006418830558	0.42200707963209527	1.8936994758052346	0.32597173982943917	0.4539823855346329	1.8929932767535615	0.2780454565600382	0.6800276499783854	1.9414184578430367	0.04269027849534253	0.42709416879188494	1.041648851533672	0.0651749624348763	0.5289576408925536	1.4743107612952282	0.09204050011358166	0.5816903876200765	1.8692248317296936	0.10392161300976915	0.4501002639473817	1.9144985110709039	0.057691473692203746	0.4604975493533342	1.88960063698255	0.1031404591512131	0.6198895319299906	1.9122311066017064	0.13203296371220788	0.411323462384028	0.5061536793376523	0.12983900715512883	0.35029206550959846	0.2603501752846669	0.13718080241659594	0.31300290939644015	0.401183135170652	0.2651459694608941	0.4478004747211134	0.5916564225773391	0.3169871208162843	0.4612580885201059	0.8631188369965775	0.1944345681626331	0.32035604084150393	1.0287878779946356	0.13298983270769352	0.3328677767324246	1.1371643489077083	0.14038545085917947	0.34989648165514675	1.1495686447624542	0.14740132361328045	0.3856095296430265	1.1599057710196685	-0.021299412330241352	0.438974494414225	0.5897499616911309	-0.03190827270264988	0.42046392858483594	0.8613218774808626	0.08378901985727817	0.31963920754743463	1.0332375631582793	0.17590276698379703	0.3116766534935471	1.109181808108483	0.17732383666081147	0.31056037470203623	1.1219154760999612	0.1174215621651887	0.312694984492273	1.1493637418862872
42	0.7	0.23432469930758357	0.45749073949618396	1.0315529144439923	0.25627404147365784	0.4815871363803274	1.4570386302159606	0.29334981537051	0.5961017044826559	1.8779664580632849	0.2713639800388964	0.42221924953141277	1.8938935863683661	0.3261465735042869	0.4542673314891224	1.8933277316500896	0.27811985051372806	0.6799705951279693	1.9413996212867661	0.04563942360279669	0.43573680929360065	1.0403562446261805	0.0659065453870367	0.5281948213166039	1.470263320826419	0.08911528953827759	0.5679772551842148	1.862501747826662	0.10383582255057185	0.4507154647726114	1.9148313520504416	0.057619071786741534	0.46111002432313014	1.8900507335130827	0.10884660672531325	0.6038502083791338	1.9036219287497624	0.134421159228987	0.4227908673365631	0.5069363989374572	0.13387370070808863	0.35205418634451374	0.25722419289711396	0.13730908372323006	0.3127195891862405	0.40127494329949026	0.26521108351164613	0.4478041495531035	0.5916437477174153	0.3216575730905331	0.44888522100381095	0.8643334216163079	0.1944148782270748	0.32036836427859605	1.028733981781339	0.1330609469577718	0.33299554663156733	1.1373264349574153	0.1409989411143351	0.3488728909882744	1.1528271508752759	0.1442091164909987	0.37358008838670487	1.156838886725958	-0.0212965495356775	0.43899248654192424	0.5897997759916583	-0.032081673248842806	0.4188442429931509	0.8577234733700754	0.08751917519130112	0.3214218598459003	1.0335577420180717	0.17140868115314517	0.32381479828079995	1.1130568287042286	0.17294034559674135	0.32138812391201144	1.1293633475258291	0.11954809570936	0.32259746701482683	1.1487430901657587
43	0.7166666666666667	0.23943961916571102	0.4432650316324169	1.0243748010115945	0.25564236643722726	0.479521226960452	1.451915627464111	0.2907944924249534	0.5810655369271123	1.866182408204201	0.27135507490999006	0.4221905116158801	1.8937470773330038	0.3270936818779485	0.4560100482537566	1.8984141273787198	0.2781287069947263	0.6799823197585945	1.9413962319419256	0.043500757109644086	0.4238405787920935	1.0375057039915485	0.06606060253543948	0.5281861035017424	1.470187174552752	0.08917953657253648	0.5678765422225382	1.8624386158908817	0.10388707208731314	0.45024321164547837	1.914609443183714	0.05762424670132773	0.46059126134043604	1.8896251740437247	0.1088298660827057	0.6039296650068007	1.903642370588164	0.134430670356755	0.4228790745087476	0.5069866678124711	0.13385519275694352	0.3520262349466068	0.25719260608171896	0.1372953131957115	0.3127555641895633	0.4012941331923702	0.26525034851566753	0.44794200539524465	0.5916825215406022	0.3216887866621282	0.44876887399514037	0.8643443483969846	0.1944325327921976	0.3204453019807344	1.028845307686081	0.12969592587479223	0.3196995659502195	1.1365246790004058	0.14077317590676747	0.3490743320398314	1.1528785434812987	0.14425985349757733	0.37358203895945014	1.1567205269760987	-0.021307612322863576	0.4389499192953264	0.5898803635820192	-0.03182245027939204	0.42024792468096844	0.8614728575305207	0.0875285875056444	0.32133372499154916	1.0335251944014576	0.17140782194950938	0.32387490269183117	1.1130547964905697	0.1729365506546368	0.32134580681838426	1.129494843368614	0.11740004037396577	0.312578829268253	1.1495605914880227
44	0.7333333333333333	0.23949420429124532	0.443219208334765	1.0243916712690286	0.2556133424495493	0.4795456383845662	1.452026487231833	0.29551949357337	0.5653628004661876	1.8579088488335935	0.2712908596883397	0.42227243340458975	1.8938011198240599	0.3270369782962503	0.4561291993043161	1.898461538262732	0.2781266389669586	0.6799334341792488	1.9412747362150535	0.046132501144512054	0.43731977431067	1.04438600302288	0.06613815731621035	0.5282168822946889	1.4701735790886568	0.0891679166392128	0.5678306677389149	1.862350746549163	0.10386387927182952	0.4502932972604513	1.9146224530848999	0.05371964422719145	0.4583263949794658	1.8885684602026893	0.10886451938595476	0.603896287876964	1.9035543058164475	0.1390830748427383	0.4100888096272734	0.5058755250940686	0.13386013494990273	0.3520671083694964	0.25717416110181096	0.1372957635498578	0.312774102813634	0.4012764575976889	0.26528347086277165	0.44799711258469505	0.5916851420311675	0.32169258256340033	0.44869757353440165	0.8643744614181308	0.1944705381890925	0.3201756894064048	1.0287403594757876	0.12973099859426057	0.3209742294056329	1.134078008680494	0.14109586369881347	0.3492320477546638	1.153236679827707	0.14430408071008138	0.37324172677097034	1.1568537753969186	-0.021266876438531247	0.43891534184639225	0.5899499062983129	-0.031820660538574005	0.4202456530999378	0.8614686065025932	0.08753504235633064	0.32137550551861754	1.0335855510528453	0.17133265443253975	0.32399554289772786	1.11309284631208	0.17291108631910065	0.32141799327951037	1.1293617297579799	0.11740999334235086	0.31254015933987334	1.1490455239576258
